<svg viewBox="0 0 860 520" xmlns="http://www.w3.org/2000/svg" role="img" aria-labelledby="cprTitle">
  <title id="cprTitle">Labeled parts of a computer: the monitor shows results, the tower holds the brain (CPU), memory, and storage, the keyboard and mouse are inputs, and speakers are outputs</title>
  <rect x="1" y="1" width="858" height="518" rx="16" fill="#ffffff" stroke="#e2e8f0" stroke-width="2"/>
  <text x="430" y="40" text-anchor="middle" font-family="'Segoe UI', system-ui, sans-serif" font-size="22" font-weight="700" fill="#1e293b">Parts of a Computer</text>

  <!-- desk scene -->
  <g>
    <!-- monitor -->
    <rect x="270" y="90" width="270" height="170" rx="10" fill="#1e293b"/>
    <rect x="282" y="102" width="246" height="146" rx="4" fill="#4a90d9"/>
    <rect x="380" y="260" width="50" height="26" fill="#1e293b"/>
    <rect x="350" y="286" width="110" height="10" rx="5" fill="#1e293b"/>
    <!-- tower -->
    <rect x="590" y="120" width="110" height="220" rx="10" fill="#334155"/>
    <rect x="605" y="140" width="80" height="12" rx="6" fill="#64748b"/>
    <rect x="605" y="162" width="80" height="12" rx="6" fill="#64748b"/>
    <circle cx="645" cy="310" r="9" fill="#4ade80"/>
    <!-- keyboard -->
    <rect x="255" y="330" width="220" height="56" rx="10" fill="#94a3b8"/>
    <g fill="#e2e8f0">
      <rect x="268" y="342" width="18" height="14" rx="3"/><rect x="292" y="342" width="18" height="14" rx="3"/><rect x="316" y="342" width="18" height="14" rx="3"/><rect x="340" y="342" width="18" height="14" rx="3"/><rect x="364" y="342" width="18" height="14" rx="3"/><rect x="388" y="342" width="18" height="14" rx="3"/><rect x="412" y="342" width="18" height="14" rx="3"/><rect x="436" y="342" width="18" height="14" rx="3"/>
      <rect x="280" y="362" width="150" height="14" rx="3"/>
    </g>
    <!-- mouse -->
    <ellipse cx="522" cy="360" rx="26" ry="36" fill="#94a3b8"/>
    <line x1="522" y1="330" x2="522" y2="350" stroke="#e2e8f0" stroke-width="3"/>
    <!-- speakers -->
    <rect x="180" y="150" width="60" height="110" rx="8" fill="#334155"/>
    <circle cx="210" cy="190" r="18" fill="#64748b"/>
    <circle cx="210" cy="232" r="10" fill="#64748b"/>
  </g>

  <!-- labels -->
  <g font-family="'Segoe UI', system-ui, sans-serif" font-size="13.5">
    <g stroke="#94a3b8" stroke-width="2">
      <line x1="300" y1="120" x2="205" y2="95"/>
      <line x1="180" y1="200" x2="110" y2="230"/>
      <line x1="360" y1="386" x2="300" y2="440"/>
      <line x1="522" y1="396" x2="545" y2="440"/>
      <line x1="700" y1="200" x2="762" y2="180"/>
    </g>
    <g fill="#1e293b">
      <text x="200" y="85" text-anchor="end" font-weight="700">monitor</text>
      <text x="200" y="103" text-anchor="end" font-size="12" fill="#64748b">shows the results (output)</text>
      <text x="105" y="252" text-anchor="end" font-weight="700">speaker</text>
      <text x="105" y="270" text-anchor="end" font-size="12" fill="#64748b">plays sound (output)</text>
      <text x="298" y="460" text-anchor="middle" font-weight="700">keyboard</text>
      <text x="298" y="478" font-size="12" fill="#64748b" text-anchor="middle">types letters (input)</text>
      <text x="548" y="460" text-anchor="middle" font-weight="700">mouse</text>
      <text x="548" y="478" font-size="12" fill="#64748b" text-anchor="middle">points and clicks (input)</text>
      <text x="766" y="172" font-weight="700">the tower</text>
      <text x="766" y="192" font-size="12" fill="#64748b">holds the CPU (brain),</text>
      <text x="766" y="209" font-size="12" fill="#64748b">RAM (memory), and</text>
      <text x="766" y="226" font-size="12" fill="#64748b">storage (treasure chest)</text>
    </g>
  </g>

  <text x="430" y="500" text-anchor="middle" font-family="'Segoe UI', system-ui, sans-serif" font-size="13.5" fill="#64748b">Laptops and tablets squeeze all the same parts into one slim case.</text>
</svg>
