<svg viewBox="0 0 720 330" xmlns="http://www.w3.org/2000/svg" role="img" aria-labelledby="hrTitle">
  <title id="hrTitle">A simplified keyboard with the home row keys A S D F and J K L highlighted, where typing fingers rest</title>
  <rect x="1" y="1" width="718" height="328" rx="16" fill="#ffffff" stroke="#e2e8f0" stroke-width="2"/>
  <text x="360" y="42" text-anchor="middle" font-family="'Segoe UI', system-ui, sans-serif" font-size="20" font-weight="700" fill="#1e293b">The Home Row</text>
  <g>
    <rect x="82" y="70" width="48" height="44" rx="8" fill="#f1f5f9" stroke="#cbd5e1" stroke-width="1.5"/><text x="106" y="98" text-anchor="middle" font-family="'Segoe UI', system-ui, sans-serif" font-size="17" font-weight="700" fill="#475569">Q</text>
    <rect x="138" y="70" width="48" height="44" rx="8" fill="#f1f5f9" stroke="#cbd5e1" stroke-width="1.5"/><text x="162" y="98" text-anchor="middle" font-family="'Segoe UI', system-ui, sans-serif" font-size="17" font-weight="700" fill="#475569">W</text>
    <rect x="194" y="70" width="48" height="44" rx="8" fill="#f1f5f9" stroke="#cbd5e1" stroke-width="1.5"/><text x="218" y="98" text-anchor="middle" font-family="'Segoe UI', system-ui, sans-serif" font-size="17" font-weight="700" fill="#475569">E</text>
    <rect x="250" y="70" width="48" height="44" rx="8" fill="#f1f5f9" stroke="#cbd5e1" stroke-width="1.5"/><text x="274" y="98" text-anchor="middle" font-family="'Segoe UI', system-ui, sans-serif" font-size="17" font-weight="700" fill="#475569">R</text>
    <rect x="306" y="70" width="48" height="44" rx="8" fill="#f1f5f9" stroke="#cbd5e1" stroke-width="1.5"/><text x="330" y="98" text-anchor="middle" font-family="'Segoe UI', system-ui, sans-serif" font-size="17" font-weight="700" fill="#475569">T</text>
    <rect x="362" y="70" width="48" height="44" rx="8" fill="#f1f5f9" stroke="#cbd5e1" stroke-width="1.5"/><text x="386" y="98" text-anchor="middle" font-family="'Segoe UI', system-ui, sans-serif" font-size="17" font-weight="700" fill="#475569">Y</text>
    <rect x="418" y="70" width="48" height="44" rx="8" fill="#f1f5f9" stroke="#cbd5e1" stroke-width="1.5"/><text x="442" y="98" text-anchor="middle" font-family="'Segoe UI', system-ui, sans-serif" font-size="17" font-weight="700" fill="#475569">U</text>
    <rect x="474" y="70" width="48" height="44" rx="8" fill="#f1f5f9" stroke="#cbd5e1" stroke-width="1.5"/><text x="498" y="98" text-anchor="middle" font-family="'Segoe UI', system-ui, sans-serif" font-size="17" font-weight="700" fill="#475569">I</text>
    <rect x="530" y="70" width="48" height="44" rx="8" fill="#f1f5f9" stroke="#cbd5e1" stroke-width="1.5"/><text x="554" y="98" text-anchor="middle" font-family="'Segoe UI', system-ui, sans-serif" font-size="17" font-weight="700" fill="#475569">O</text>
    <rect x="586" y="70" width="48" height="44" rx="8" fill="#f1f5f9" stroke="#cbd5e1" stroke-width="1.5"/><text x="610" y="98" text-anchor="middle" font-family="'Segoe UI', system-ui, sans-serif" font-size="17" font-weight="700" fill="#475569">P</text>
    <rect x="96" y="122" width="48" height="44" rx="8" fill="#4a90d9" stroke="#2c6cb0" stroke-width="1.5"/><text x="120" y="150" text-anchor="middle" font-family="'Segoe UI', system-ui, sans-serif" font-size="17" font-weight="700" fill="#ffffff">A</text>
    <rect x="152" y="122" width="48" height="44" rx="8" fill="#4a90d9" stroke="#2c6cb0" stroke-width="1.5"/><text x="176" y="150" text-anchor="middle" font-family="'Segoe UI', system-ui, sans-serif" font-size="17" font-weight="700" fill="#ffffff">S</text>
    <rect x="208" y="122" width="48" height="44" rx="8" fill="#4a90d9" stroke="#2c6cb0" stroke-width="1.5"/><text x="232" y="150" text-anchor="middle" font-family="'Segoe UI', system-ui, sans-serif" font-size="17" font-weight="700" fill="#ffffff">D</text>
    <rect x="264" y="122" width="48" height="44" rx="8" fill="#4a90d9" stroke="#2c6cb0" stroke-width="1.5"/><text x="288" y="150" text-anchor="middle" font-family="'Segoe UI', system-ui, sans-serif" font-size="17" font-weight="700" fill="#ffffff">F</text><rect x="280" y="156" width="16" height="3.5" rx="1.75" fill="#ffffff"/>
    <rect x="320" y="122" width="48" height="44" rx="8" fill="#f1f5f9" stroke="#cbd5e1" stroke-width="1.5"/><text x="344" y="150" text-anchor="middle" font-family="'Segoe UI', system-ui, sans-serif" font-size="17" font-weight="700" fill="#475569">G</text>
    <rect x="376" y="122" width="48" height="44" rx="8" fill="#f1f5f9" stroke="#cbd5e1" stroke-width="1.5"/><text x="400" y="150" text-anchor="middle" font-family="'Segoe UI', system-ui, sans-serif" font-size="17" font-weight="700" fill="#475569">H</text>
    <rect x="432" y="122" width="48" height="44" rx="8" fill="#4a90d9" stroke="#2c6cb0" stroke-width="1.5"/><text x="456" y="150" text-anchor="middle" font-family="'Segoe UI', system-ui, sans-serif" font-size="17" font-weight="700" fill="#ffffff">J</text><rect x="448" y="156" width="16" height="3.5" rx="1.75" fill="#ffffff"/>
    <rect x="488" y="122" width="48" height="44" rx="8" fill="#4a90d9" stroke="#2c6cb0" stroke-width="1.5"/><text x="512" y="150" text-anchor="middle" font-family="'Segoe UI', system-ui, sans-serif" font-size="17" font-weight="700" fill="#ffffff">K</text>
    <rect x="544" y="122" width="48" height="44" rx="8" fill="#4a90d9" stroke="#2c6cb0" stroke-width="1.5"/><text x="568" y="150" text-anchor="middle" font-family="'Segoe UI', system-ui, sans-serif" font-size="17" font-weight="700" fill="#ffffff">L</text>
    <rect x="600" y="122" width="48" height="44" rx="8" fill="#4a90d9" stroke="#2c6cb0" stroke-width="1.5"/><text x="624" y="150" text-anchor="middle" font-family="'Segoe UI', system-ui, sans-serif" font-size="17" font-weight="700" fill="#ffffff">&#59;</text>
    <rect x="110" y="174" width="48" height="44" rx="8" fill="#f1f5f9" stroke="#cbd5e1" stroke-width="1.5"/><text x="134" y="202" text-anchor="middle" font-family="'Segoe UI', system-ui, sans-serif" font-size="17" font-weight="700" fill="#475569">Z</text>
    <rect x="166" y="174" width="48" height="44" rx="8" fill="#f1f5f9" stroke="#cbd5e1" stroke-width="1.5"/><text x="190" y="202" text-anchor="middle" font-family="'Segoe UI', system-ui, sans-serif" font-size="17" font-weight="700" fill="#475569">X</text>
    <rect x="222" y="174" width="48" height="44" rx="8" fill="#f1f5f9" stroke="#cbd5e1" stroke-width="1.5"/><text x="246" y="202" text-anchor="middle" font-family="'Segoe UI', system-ui, sans-serif" font-size="17" font-weight="700" fill="#475569">C</text>
    <rect x="278" y="174" width="48" height="44" rx="8" fill="#f1f5f9" stroke="#cbd5e1" stroke-width="1.5"/><text x="302" y="202" text-anchor="middle" font-family="'Segoe UI', system-ui, sans-serif" font-size="17" font-weight="700" fill="#475569">V</text>
    <rect x="334" y="174" width="48" height="44" rx="8" fill="#f1f5f9" stroke="#cbd5e1" stroke-width="1.5"/><text x="358" y="202" text-anchor="middle" font-family="'Segoe UI', system-ui, sans-serif" font-size="17" font-weight="700" fill="#475569">B</text>
    <rect x="390" y="174" width="48" height="44" rx="8" fill="#f1f5f9" stroke="#cbd5e1" stroke-width="1.5"/><text x="414" y="202" text-anchor="middle" font-family="'Segoe UI', system-ui, sans-serif" font-size="17" font-weight="700" fill="#475569">N</text>
    <rect x="446" y="174" width="48" height="44" rx="8" fill="#f1f5f9" stroke="#cbd5e1" stroke-width="1.5"/><text x="470" y="202" text-anchor="middle" font-family="'Segoe UI', system-ui, sans-serif" font-size="17" font-weight="700" fill="#475569">M</text>
    <rect x="502" y="174" width="48" height="44" rx="8" fill="#f1f5f9" stroke="#cbd5e1" stroke-width="1.5"/><text x="526" y="202" text-anchor="middle" font-family="'Segoe UI', system-ui, sans-serif" font-size="17" font-weight="700" fill="#475569">&#44;</text>
    <rect x="558" y="174" width="48" height="44" rx="8" fill="#f1f5f9" stroke="#cbd5e1" stroke-width="1.5"/><text x="582" y="202" text-anchor="middle" font-family="'Segoe UI', system-ui, sans-serif" font-size="17" font-weight="700" fill="#475569">.</text>
    <rect x="614" y="174" width="48" height="44" rx="8" fill="#f1f5f9" stroke="#cbd5e1" stroke-width="1.5"/><text x="638" y="202" text-anchor="middle" font-family="'Segoe UI', system-ui, sans-serif" font-size="17" font-weight="700" fill="#475569">/</text>
  </g>
  <rect x="200" y="226" width="320" height="30" rx="8" fill="#f1f5f9" stroke="#cbd5e1" stroke-width="1.5"/>
  <text x="360" y="246" text-anchor="middle" font-family="'Segoe UI', system-ui, sans-serif" font-size="12" fill="#94a3b8">space bar</text>
  <text x="360" y="288" text-anchor="middle" font-family="'Segoe UI', system-ui, sans-serif" font-size="13.5" fill="#64748b">Fingers rest on the highlighted keys. The small bumps on F and J help you find them without looking.</text>
  <text x="360" y="310" text-anchor="middle" font-family="'Segoe UI', system-ui, sans-serif" font-size="13.5" fill="#64748b">Left hand: A S D F &#8226; Right hand: J K L &#59;</text>
</svg>
